<?xml version="1.0" encoding="UTF-8"?>
<svg id="Layer_1" data-name="Layer 1" xmlns="http://www.w3.org/2000/svg" viewBox="0 0 32 32">
  <defs>
    <style>
      .cls-1 {
        fill: #06374f;
      }

      .cls-2 {
        fill: #fff;
      }

      .cls-3 {
        fill: #1c5ae5;
      }
    </style>
  </defs>
  <circle class="cls-2" cx="16" cy="16" r="15.25"/>
  <g>
    <polygon class="cls-3" points="16.67 16.04 16.67 22.73 13.42 22.73 7.97 14.48 7.97 22.73 4.71 22.73 4.71 9.36 7.97 9.36 13.42 17.64 13.42 16.04 16.67 16.04"/>
    <polygon class="cls-1" points="27.29 19.98 27.29 22.73 16.69 22.73 16.67 21.47 16.67 20.14 22.37 11.94 13.39 11.94 11.68 9.27 26.1 9.27 26.1 11.75 20.35 19.98 27.29 19.98"/>
    <path class="cls-3" d="M17.11,13.98s0,.01,0,.02c-1.09.1-1.97.96-2.08,2.05h-.03c-.11-1.08-.97-1.94-2.05-2.04,0,0,0-.02,0-.02,1.08-.11,1.93-.96,2.05-2.03h.03c.12,1.08.99,1.94,2.08,2.03Z"/>
  </g>
</svg>