<?xml version="1.0" encoding="UTF-8"?>
<svg id="Layer_1" data-name="Layer 1" xmlns="http://www.w3.org/2000/svg" viewBox="0 0 2000 2000">
  <defs>
    <style>
      .cls-1 {
        fill: #1c5ae5;
      }
    </style>
  </defs>
  <path class="cls-1" d="M672.99,1302.25h-9.93l-.47-4.48c-3.75-35.75-32.42-64.32-68.17-67.92l-4.22-.43-.26-4.24c-.02-.38-.03-.79-.03-1.17v-4.52l4.5-.46c36.47-3.69,65.2-32.87,68.32-69.39l.39-4.57h9.82l.39,4.58c3.15,36.99,32.26,66.21,69.21,69.47l4.56.4v4.58c0,.35,0,.73-.04,1.08l-.36,4.18-4.18.38c-36.26,3.25-65.31,31.86-69.06,68.03l-.46,4.48ZM615.61,1224.45c24.32,8.7,43.68,28.05,52.4,52.39,8.67-24.37,27.99-43.69,52.32-52.39-24.42-8.66-43.67-27.93-52.32-52.36-8.68,24.37-27.98,43.68-52.4,52.36Z"/>
  <path class="cls-1" d="M518.74,1190.96h-9.59l-.47-4.48c-2.27-21.59-19.58-38.83-41.16-41.01l-4.22-.43-.27-4.23c-.02-.28-.02-.58-.02-.86v-4.52l4.5-.46c22.02-2.23,39.37-19.85,41.25-41.9l.39-4.57h9.58l.39,4.58c1.9,22.33,19.48,39.97,41.78,41.95l4.56.4v4.58c0,.27,0,.56-.03.83l-.35,4.18-4.18.37c-21.9,1.96-39.43,19.24-41.7,41.08l-.46,4.48ZM485.98,1140.24c12.34,5.62,22.33,15.6,27.96,27.95,5.6-12.37,15.57-22.33,27.92-27.95-12.38-5.6-22.32-15.54-27.91-27.93-5.61,12.36-15.57,22.32-27.96,27.93Z"/>
  <path class="cls-1" d="M426.34,839.07c-7.56-9.78-19.45-15.61-31.81-15.61h-11.15c-1.8-19-13.77-35.06-30.39-42.71v-456.7c0-12.05-9.8-21.85-21.85-21.85s-21.85,9.8-21.85,21.85v456.7c-16.62,7.64-28.59,23.71-30.39,42.71h-6.51c-17.5,0-32.41,12.51-35.45,29.74l-16.43,93.21h288.82l-82.98-107.34ZM319.29,775.97v-451.92c0-6.53,5.32-11.85,11.85-11.85s11.85,5.32,11.85,11.85v451.92h-23.7ZM331.14,785.97c21.74,0,39.71,16.41,42.2,37.49h-84.39c2.48-21.08,20.46-37.49,42.2-37.49ZM246.78,854.94c2.19-12.45,12.96-21.48,25.6-21.48h122.16c9.28,0,18.22,4.39,23.9,11.73l70.52,91.23h-41.95l-31.19-44.18-8.17,5.77,27.12,38.41h-22.57l-31.19-44.18-8.17,5.77,27.12,38.41h-22.57l-31.19-44.18-8.17,5.77,27.12,38.41h-22.57l-31.19-44.18-8.17,5.77,27.12,38.41h-22.57l-31.19-44.18-8.17,5.77,27.12,38.41h-63.12l14.37-81.48Z"/>
  <g>
    <path class="cls-1" d="M854.06,664.41l-25.55,4.8c-15.58,2.92-31.04-6.77-35.21-22.06-4.67-17.17-20.26-29.06-38.02-29.06-.17,0-.33,0-.5,0l-4.76.06c-11.28.14-20.93,8.68-22.45,19.86-.7,5.18-5.18,9.09-10.41,9.09h-34.06c-7.69,0-14.81,3.47-19.56,9.52-4.74,6.05-6.41,13.8-4.58,21.26,3.13,12.74,14.48,21.64,27.6,21.64h16.95c7.39,0,14.05,4.39,16.97,11.19l2.85,6.65c1.98,4.61,1.75,9.79-.63,14.21-2.38,4.42-6.58,7.46-11.52,8.35l-20.42,3.67c-10.05,1.8-18.94,7.79-24.4,16.42s-7.04,19.23-4.36,29.08c5.12,18.79,24.03,30.23,43.05,26.04l31.87-7.02c15-3.3,30.08,4.62,35.85,18.85l10.7,26.36c7.77,19.14,26.18,31.11,46.11,31.11,3.53,0,7.1-.38,10.67-1.15,14.38-3.12,26.32-12.5,32.76-25.73s6.47-28.41.08-41.66l-23.39-48.45c-2.97-6.15-3.14-13.28-.46-19.57s7.93-11.11,14.42-13.23l16.35-5.35c8.44-2.76,15.27-9.04,18.74-17.21,3.47-8.17,3.24-17.45-.63-25.44-7.98-16.46-26.1-25.59-44.07-22.22ZM889.56,708.15c-2.34,5.52-6.95,9.75-12.65,11.62l-16.35,5.35c-9.23,3.02-16.71,9.88-20.51,18.82-3.8,8.94-3.56,19.08.66,27.83l23.39,48.45c5.06,10.47,5.03,22.47-.06,32.93s-14.53,17.87-25.9,20.34c-18.99,4.13-38.08-5.94-45.39-23.95l-10.7-26.36c-6.46-15.91-21.73-25.84-38.28-25.84-2.97,0-5.98.32-8.99.98l-31.87,7.02c-13.81,3.04-27.53-5.26-31.25-18.9-1.98-7.26-.85-14.75,3.16-21.11,4.02-6.36,10.31-10.59,17.71-11.92l20.42-3.67c7.96-1.43,14.72-6.33,18.56-13.45,3.83-7.12,4.21-15.46,1.02-22.89l-2.85-6.65c-4.49-10.48-14.76-17.25-26.16-17.25h-16.95c-8.5,0-15.86-5.77-17.89-14.03-1.1-4.46-.1-9.09,2.74-12.71s7.09-5.69,11.69-5.69h34.06c10.21,0,18.94-7.63,20.32-17.74.86-6.31,6.3-11.12,12.67-11.2l4.76-.06c13.4-.16,25.22,8.75,28.74,21.68,4.86,17.86,21.33,29.96,39.3,29.96,2.45,0,4.93-.22,7.4-.69l25.55-4.8c13.55-2.55,27.21,4.34,33.23,16.75,2.61,5.39,2.77,11.65.43,17.17Z"/>
    <path class="cls-1" d="M935.98,746.24c-17.17,0-31.14,13.97-31.14,31.14s13.97,31.14,31.14,31.14,31.14-13.97,31.14-31.14-13.97-31.14-31.14-31.14ZM935.98,798.52c-11.66,0-21.14-9.48-21.14-21.14s9.48-21.14,21.14-21.14,21.14,9.48,21.14,21.14-9.48,21.14-21.14,21.14Z"/>
    <path class="cls-1" d="M728.42,851.37c-10.63,0-19.28,8.65-19.28,19.28s8.65,19.28,19.28,19.28,19.28-8.65,19.28-19.28-8.65-19.28-19.28-19.28ZM728.42,879.93c-5.12,0-9.28-4.16-9.28-9.28s4.16-9.28,9.28-9.28,9.28,4.16,9.28,9.28-4.16,9.28-9.28,9.28Z"/>
    <path class="cls-1" d="M838.14,639.02c14.17,0,25.7-11.53,25.7-25.7s-11.53-25.7-25.7-25.7-25.7,11.53-25.7,25.7,11.53,25.7,25.7,25.7ZM838.14,597.62c8.66,0,15.7,7.04,15.7,15.7s-7.04,15.7-15.7,15.7-15.7-7.04-15.7-15.7,7.04-15.7,15.7-15.7Z"/>
  </g>
  <path class="cls-1" d="M1479.75,698.29c-3.32-3.98-8.2-6.26-13.39-6.26h-19.76l7.39-98.19c.91-11.85-8-22.23-19.85-23.14-11.85-.91-22.24,8-23.14,19.86l-3.35,44.54h-105.87c-10.92,0-19.8,8.88-19.8,19.8v37.15h-32.66l-3.51-23.41,14-2.06c2.62-.37,4.93-1.74,6.5-3.88,1.57-2.13,2.2-4.75,1.77-7.36l-4.37-26.74c-2.57-15.7-17.46-26.56-33.2-24.19l-24.75,3.72c-7.75,1.16-14.58,5.29-19.22,11.61-4.63,6.3-6.52,14.02-5.33,21.75l3.43,26.26.02.12c.75,4.78,4.93,8.25,9.65,8.25.44,0,.89-.03,1.34-.09l17.2-2.53,2.78,18.55h-34.32c-5.18,0-10.06,2.28-13.39,6.26s-4.7,9.19-3.78,14.29l47.58,263.12c1.5,8.31,8.72,14.34,17.16,14.34h189.88c8.44,0,15.66-6.03,17.16-14.34l12.25-67.74h.37c.21,0,.42,0,.63,0,13.64,0,21.08-9.8,21.4-19.65.27-8.53-4.99-17.35-15.53-18.34l28.47-157.4c.92-5.1-.45-10.31-3.78-14.29ZM1433.38,580.67c3.08.24,5.88,1.66,7.89,4,2.01,2.34,2.99,5.33,2.75,8.41l-2.73,36.3c-.99-5.2-5.36-9.32-10.89-9.75-5.4-.41-10.26,2.84-12.13,7.65l2.71-35.97c.49-6.36,6.05-11.13,12.41-10.65ZM1431.51,631.8l-.69,9.01c-.09,1.12-1.06,1.96-2.19,1.88-.73-.06-1.19-.47-1.39-.7s-.54-.75-.48-1.48l.69-9.01c.06-.73.47-1.19.7-1.39.22-.19.67-.49,1.32-.49.05,0,.11,0,.16,0,1.12.09,1.96,1.07,1.88,2.19ZM1417.06,643.33c.43,1.88,1.31,3.64,2.6,5.15,2.09,2.44,5.01,3.92,8.22,4.16.31.02.62.04.93.04,5.17,0,9.69-3.33,11.34-8.07l-3.57,47.42h-23.19l3.67-48.7ZM1291.99,654.89c0-5.4,4.39-9.8,9.8-9.8h105.12l-3.53,46.94h-19.21v-4.82c0-10.5-8.54-19.04-19.04-19.04h-22.72c-10.5,0-19.04,8.54-19.04,19.04v4.82h-31.36v-37.15ZM1374.16,692.03h-40.81v-4.82c0-4.99,4.06-9.04,9.04-9.04h22.72c4.99,0,9.04,4.06,9.04,9.04v4.82ZM1194.52,666.08l-3.39-25.96-.02-.12c-.8-5.1.45-10.2,3.5-14.35,3.05-4.16,7.55-6.87,12.65-7.64l24.75-3.72c.95-.14,1.9-.21,2.84-.21,9.25,0,17.47,6.75,19,16.13l4.33,26.49-63.66,9.38ZM1222.75,672.02l13.17-1.94,3.29,21.95h-13.46l-3-20.01ZM1426.1,973.92c-.64,3.54-3.72,6.12-7.32,6.12h-189.88c-3.6,0-6.68-2.57-7.32-6.12l-39.37-217.67h126.6v29.53c0,67.37,54.81,122.19,122.19,122.19h7.03l-11.93,65.96ZM1460.6,888c-.16,5.1-3.89,10.16-11.86,9.96h-17.74c-61.86,0-112.19-50.33-112.19-112.19v-34.53c0-8.51,5.69-12.32,11.32-12.32s11.32,3.81,11.32,12.32v26.26c0,56.44,45.92,102.36,102.36,102.36h9.85c5.3.26,7.05,4.53,6.94,8.12ZM1465.47,756.24l-20.55,113.63h-1.1c-50.93,0-92.36-41.43-92.36-92.37v-21.26h114.02ZM1473.69,710.8l-6.41,35.44h-116.28c-2.14-11.39-11.55-17.32-20.87-17.32s-18.73,5.93-20.87,17.32h-128.86l-6.41-35.44c-.39-2.18.19-4.4,1.61-6.1s3.5-2.67,5.71-2.67h285.04c2.21,0,4.29.97,5.71,2.67s2.01,3.92,1.61,6.1Z"/>
  <path class="cls-1" d="M1166.05,1014.49c-3.19-4.23-8.06-6.69-13.36-6.73l-83.61-.71c-7.72-.03-14.98,3.22-20.05,9.01-2.45,2.43-4.23,5.45-5.15,8.76l-21.76,78.54c-3.88-.74-7.85-.07-11.29,1.97-3.76,2.23-6.41,5.8-7.47,10.05l-3.99,16.12-6.08-1.69c-28.9-8.01-59.1,8.94-67.31,37.77-.12.4-.21.82-.28,1.22l-47.62,264.91c-5.54,20.49,6.54,41.72,27.03,47.4l11.48,3.18-10.89,39.32h-60.57c-28.94,0-52.49,23.55-52.49,52.49v13.43h224.47v-49.43c0-9.09-7.4-16.49-16.49-16.49h-51.22l8.13-29.35c6.75-.83,12.68-5.61,14.61-12.57l87.42-315.52c1.24-4.46.66-9.14-1.62-13.17-1.15-2.02-2.65-3.76-4.43-5.15l9.38-33.85h0s16.91-61.03,16.91-61.03c.42-1.52,1.82-2.58,3.4-2.58h65.35s0,.01,0,.01c8.51,0,16.04-5.73,18.31-13.93l2.01-7.27c1.42-5.11.4-10.47-2.79-14.7ZM1013.07,1117.78c.4-1.63,1.42-3,2.86-3.85,1.44-.86,3.13-1.09,4.75-.67l29.84,7.83-6.32,22.83-35.19-9.75,4.06-16.39ZM1000.61,1533.6c3.58,0,6.49,2.91,6.49,6.49v39.43h-204.47v-3.43c0-23.43,19.06-42.49,42.49-42.49h155.49ZM916.06,1523.6l10.15-36.65,21.31,5.9-8.52,30.74h-22.94ZM1049.9,1163.49l-87.42,315.52c-1.08,3.9-5.13,6.19-9.03,5.11l-34.21-9.48h0s-11.48-3.18-11.48-3.18c-15.25-4.23-24.22-20.07-20-35.32l.06-.22,47.7-265.36c.01-.08.03-.15.05-.23,6.72-23.57,31.4-37.42,55.03-30.88l6.35,1.76h0s20.79,5.76,20.79,5.76l27.04,7.49c1.89.52,3.46,1.75,4.43,3.46.97,1.71,1.21,3.69.69,5.58ZM1159.21,1026.52l-2.01,7.27c-1.08,3.88-4.64,6.6-8.67,6.6h-65.35s0-.01,0-.01c-6.06,0-11.42,4.08-13.03,9.91l-16.95,61.16-21.39-5.61,21.71-78.35c.46-1.66,1.37-3.19,2.63-4.4l.31-.33c3.16-3.67,7.74-5.74,12.54-5.7l83.62.71c2.17.02,4.16,1.02,5.46,2.75,1.3,1.73,1.72,3.92,1.14,6.01Z"/>
  <path class="cls-1" d="M1442.61,1317.52l-30.92-62.41c2.41-1.98,3.94-4.98,3.94-8.33v-16.96c0-5.12-3.59-9.41-8.38-10.5,2.43-13.36,14.19-23.56,28.19-23.56h10.8c5.63,0,10.21-4.58,10.21-10.21,0-28.45-23.15-51.6-51.6-51.6h-96.79c-5.54,0-10.04,4.51-10.04,10.04v2.63h-16.6v30.07h16.6v2.63c0,5.54,4.51,10.04,10.09,10.04.24,0,.48,0,.73,0,2.08,0,4.06.09,5.96.26-6.07,11.04-18.57,33.55-23.45,40.44-2.45,3.47-1.74,8.22,1.63,10.81l6.67,5.13c1.41,1.09,3.11,1.62,4.81,1.62,1.82,0,3.64-.62,5.09-1.85,5.47-4.63,22.31-19.64,33.12-37.69,1,2.41,1.8,5.06,2.41,7.96v3.31c-4.69,1.17-8.18,5.4-8.18,10.45v16.96c0,3.6,1.78,6.78,4.49,8.74l-21.36,62.52c-18.42,53.92-27.76,110.15-27.76,167.13v89.21c0,17.82,14.5,32.32,32.32,32.32h106.02c17.82,0,32.32-14.5,32.32-32.32v-170.24c0-29.89-7.01-59.84-20.28-86.62ZM1346.88,1246.79v-16.96c0-.43.35-.78.78-.78h57.2c.43,0,.78.35.78.78v16.96c0,.43-.35.78-.78.78h-57.2c-.43,0-.78-.35-.78-.78ZM1291.42,1166.71v-10.07h6.6v10.07h-6.6ZM1308.02,1179.34v-35.34l.04-.04h96.79c22.94,0,41.6,18.66,41.6,41.6,0,.11-.09.21-.21.21h-10.8c-19.4,0-35.64,14.53-38.28,33.28h-42.11v-3.98l-.1-.48c-4.69-23.6-20.5-35.46-46.95-35.25ZM1304.38,1237.05l-3.73-2.87c6.31-9.56,19.49-33.46,24.43-42.49,4.57,1.53,8.37,3.83,11.43,6.93-8.92,17.27-25.41,32.61-32.13,38.43ZM1452.89,1574.39c0,12.3-10.01,22.32-22.32,22.32h-106.02c-12.31,0-22.32-10.01-22.32-22.32v-89.21c0-55.88,9.16-111.02,27.23-163.9l21.77-63.71h50.52l31.9,64.4c12.59,25.41,19.24,53.83,19.24,82.19v170.24Z"/>
  <g>
    <path class="cls-1" d="M1819.01,1293.82l-37.71-62.7-12.62-34.62-.09.02-6.11-21.08,2.1-.61-5.27-18.18c-1.89-6.52-6.2-11.91-12.14-15.18-5.94-3.27-12.8-4.04-19.32-2.15l-37.45,10.85c-6.52,1.89-11.91,6.2-15.18,12.14-3.27,5.94-4.04,12.8-2.15,19.32l5.27,18.17,2.1-.61,7.78,26.85.17-.05,6.67,23.28-46.24,84.61c-18.47,30.86-28.24,66.18-28.24,102.15v82.59c0,16.61,13.52,30.13,30.13,30.13h162.17c16.61,0,30.13-13.52,30.13-30.13v-129.12c0-34.55-6.95-62.27-23.99-95.68ZM1683.98,1167.14c1.98-3.6,5.25-6.22,9.2-7.36l37.45-10.85c1.42-.41,2.87-.62,4.31-.62,2.56,0,5.1.65,7.41,1.92,3.6,1.98,6.22,5.25,7.36,9.21l2.48,8.57-67.03,19.42-2.48-8.57c-1.14-3.95-.68-8.11,1.3-11.71ZM1690.1,1196.61l62.83-18.2,4.94,17.05-62.83,18.2-4.94-17.04ZM1833.01,1518.62c0,11.1-9.03,20.13-20.13,20.13h-162.17c-11.1,0-20.13-9.03-20.13-20.13v-82.59c0-34.19,9.29-67.76,26.87-97.09l48.36-88.47-7.31-25.53,63.9-16.5,9.84,27,37.95,63.07c16.21,31.82,22.82,58.19,22.82,90.98v129.12Z"/>
    <path class="cls-1" d="M1786.48,1300.97l-.31-.62c-2.03-4.04-5.69-7.1-10.04-8.41-4.4-1.32-9.03-.79-13.02,1.5-6,3.44-9.23,10.26-8.12,17.06,1.2,34.88,6.44,63.61,16.03,87.81.57,1.44.99,2.64,1.31,3.78,1.66,5.9,5.74,10.91,11.2,13.74,3.24,1.68,6.74,2.53,10.27,2.53,2.49,0,5-.43,7.44-1.28,10.43-3.66,16.56-14.21,14.59-25.07-.29-1.61-.58-3.34-.71-5.05-2.02-28.08-11.05-55.87-26.83-82.6-.62-1.05-1.19-2.19-1.79-3.39ZM1805.97,1393.8c1.09,6-2.3,11.82-8.06,13.84-3.25,1.14-6.72.9-9.78-.69-3.06-1.59-5.26-4.29-6.19-7.58-.41-1.47-.93-2.98-1.64-4.75-9.19-23.2-14.21-50.94-15.35-84.81v-.38s-.08-.38-.08-.38c-.52-2.76.77-5.54,3.2-6.94h0c1.02-.58,2.13-.88,3.27-.88.63,0,1.27.09,1.9.28,1.73.52,3.19,1.73,3.99,3.33l.31.61c.65,1.3,1.32,2.64,2.12,3.99,14.99,25.39,23.56,51.71,25.47,78.23.16,2.2.51,4.33.84,6.13Z"/>
  </g>
</svg>